<svg xmlns="http://www.w3.org/2000/svg" width="673.94" height="170.431" viewBox="0 0 673.94 170.431">
  <g id="Group_1" data-name="Group 1" transform="translate(115.94 419.072)">
    <g id="iconEKQ" transform="translate(-114.94 -394.072)">
      <path id="Path_1" data-name="Path 1" d="M147.123-794.886c-2.745,1.814-2.671,1.623-5.045,15.6-.148,1.05-.482,2.991-.742,4.3-.223,1.3-.742,4.328-1.113,6.683-.408,2.355-.89,5.156-1.076,6.206-.223,1.05-.631,3.469-.964,5.411-.334,1.909-.742,4.424-.927,5.569-.223,1.146-.7,4.074-1.113,6.525-1.261,7.32-1.855,10.662-2.411,13.845-.3,1.655-1.076,6.174-1.669,10.025-.631,3.851-1.261,7.7-1.484,8.593-.519,2.451-1.855,10.408-1.855,11.2,0,.414-.148.732-.371.732a.376.376,0,0,1-.371-.35c0-.859-1.966-3.883-3.376-5.187-1.855-1.687-3.71-2.419-7.011-2.642a7.155,7.155,0,0,0-4.452.7c-3.969,1.718-6.455,4.106-10.535,10.089-3.19,4.679-4.526,5.983-7.456,7.256l-2.56,1.114-46.3-.127-46.3-.1V-677.6H11.055c6.047,0,13.948.064,17.509.159s19.4.223,35.167.318c29.677.16,29.195.16,33.646-1.05,6.492-1.782,12.13-5.984,16.471-12.253l2.374-3.438.668.987a4.831,4.831,0,0,1,.7,1.114c0,.064.556.955,1.224,1.973.7,1.019,2.634,4.074,4.34,6.779,4.229,6.779,5.268,7.638,9.089,7.638a6.037,6.037,0,0,0,4.748-1.56c1.929-1.5,1.669-.6,4.192-15.309,1.335-7.861,1.855-10.821,2.189-12.571.482-2.578,3.264-19.1,3.561-21.324a23.959,23.959,0,0,1,.519-3.023c.074-.255.482-2.483.927-4.9.408-2.451.816-4.488.89-4.551a10.134,10.134,0,0,1,.371,2.674c.111,1.527.408,4.169.631,5.824.334,2.833,2.3,21.356,2.931,28.008.148,1.655.89,8.816,1.6,15.913,1.373,12.922,1.558,14.8,2.634,24.506.334,2.9,1.076,10.185,1.706,16.232,1.781,17.187,1.6,16.072,2.708,17.314a6.572,6.572,0,0,0,5.713,2.577c1.966,0,2.448-.127,3.71-.986,2.374-1.655,2.931-2.641,3.413-6.079s1.447-9.453,2.819-17.76c.519-2.991,1.335-7.925,1.855-10.98s1.076-6.3,1.3-7.161c.185-.891.408-2.036.519-2.546.334-2.132,2.114-10.853,2.3-11.394s.3-.541,1.261.255a7.236,7.236,0,0,0,5.564,1.146c3.821-.732,5.119-2.451,7.568-9.9,3.116-9.58,5.3-15.69,5.49-15.4.111.159.816,1.941,1.521,3.946,3.19,8.943,8.124,21.642,9.534,24.347,1.076,2.164,2,2.96,4.748,4.01,2.671,1.05,4.748,1.177,6.455.414a15.337,15.337,0,0,0,5.564-4.87c.631-.986,1.187-1.814,1.224-1.878a10.812,10.812,0,0,1,2.077.859,45.091,45.091,0,0,0,4.971,1.782c2.671.732,3.673.827,9.83.987,3.784.064,56.052.191,116.222.254l109.322.1v-12H419.668c-68.405,0-170.9-.286-173.981-.477a13.847,13.847,0,0,1-3.71-.732c-.779-.318-2.634-1.146-4.118-1.782-4.9-2.164-8.643-2.228-12.613-.286-1.15.573-1.6.668-1.706.35-.074-.223-.482-1.273-.89-2.323-.779-2.037-3.339-8.975-5.268-14.481-.668-1.846-1.447-3.978-1.744-4.774-.3-.764-1.447-4.074-2.523-7.321-2.671-7.829-3.376-9.739-4.118-10.789-1.6-2.324-5.713-3.247-8.829-1.942-2.856,1.177-2.856,1.177-7.827,15.754-.3.859-.964,2.8-1.447,4.3s-1.744,5.124-2.819,8.116c-1.039,2.96-2,5.729-2.115,6.11-.223.859-.371.891-2.077.255a8.9,8.9,0,0,0-6.863.509c-4.043,1.751-4.86,3.246-6.974,12.54-.594,2.61-.7,2.769-.927,1.751-.148-.605-.631-4.774-1.039-9.23-.445-4.456-1.076-10.344-1.373-13.049-.334-2.706-.742-6.366-.89-8.116-.186-1.75-.594-5.761-.927-8.911-.3-3.151-.742-7.384-.927-9.389-.223-2-.556-5.252-.742-7.161-.223-1.942-.556-5.092-.742-7-.185-1.942-.594-5.857-.927-8.753-.3-2.9-.742-6.97-.965-9.071-.185-2.1-.519-5.315-.7-7.161-.223-1.846-.631-5.92-.927-9.07-1.187-12.158-1.261-12.508-4.34-14.481a5.537,5.537,0,0,0-3.673-.955A5.319,5.319,0,0,0,147.123-794.886Z" transform="translate(-1 771)" fill="#fff"/>
    </g>
    <text id="MyPharmacy" transform="translate(99 -318)" fill="#fff" font-size="76" font-family="SitkaSubheading-Bold, Sitka Subheading" font-weight="700"><tspan x="0" y="0">MyPharmacy</tspan></text>
  </g>
</svg>
